<?xml version="1.0" encoding="UTF-8" standalone="no"?>
<svg
   xmlns:dc="http://purl.org/dc/elements/1.1/"
   xmlns:cc="http://creativecommons.org/ns#"
   xmlns:rdf="http://www.w3.org/1999/02/22-rdf-syntax-ns#"
   xmlns:svg="http://www.w3.org/2000/svg"
   xmlns="http://www.w3.org/2000/svg"
   xmlns:sodipodi="http://sodipodi.sourceforge.net/DTD/sodipodi-0.dtd"
   xmlns:inkscape="http://www.inkscape.org/namespaces/inkscape"
   sodipodi:docname="MODELER_set_flow.svg"
   inkscape:version="1.0 (4035a4fb49, 2020-05-01)"
   id="svg8"
   version="1.1"
   viewBox="0 0 8.4666665 8.4666666"
   height="32"
   width="32">
  <defs
     id="defs2" />
  <sodipodi:namedview
     inkscape:document-rotation="0"
     fit-margin-bottom="0"
     fit-margin-right="0"
     fit-margin-left="0"
     fit-margin-top="0"
     inkscape:snap-global="true"
     inkscape:snap-bbox="true"
     inkscape:snap-midpoints="true"
     inkscape:snap-smooth-nodes="true"
     inkscape:object-nodes="true"
     inkscape:snap-intersection-paths="true"
     inkscape:object-paths="true"
     inkscape:snap-center="true"
     inkscape:snap-object-midpoints="true"
     inkscape:snap-page="true"
     inkscape:window-maximized="1"
     inkscape:window-y="-8"
     inkscape:window-x="-8"
     inkscape:window-height="1057"
     inkscape:window-width="1920"
     units="px"
     showgrid="false"
     inkscape:current-layer="g844"
     inkscape:document-units="mm"
     inkscape:cy="4.9125174"
     inkscape:cx="30.951945"
     inkscape:zoom="16"
     inkscape:pageshadow="2"
     inkscape:pageopacity="0.0"
     borderopacity="1.0"
     bordercolor="#666666"
     pagecolor="#ffffff"
     id="base" />
  <metadata
     id="metadata5">
    <rdf:RDF>
      <cc:Work
         rdf:about="">
        <dc:format>image/svg+xml</dc:format>
        <dc:type
           rdf:resource="http://purl.org/dc/dcmitype/StillImage" />
        <dc:title />
      </cc:Work>
    </rdf:RDF>
  </metadata>
  <g
     transform="translate(-0.00937524,-288.55225)"
     id="layer1"
     inkscape:groupmode="layer"
     inkscape:label="Layer 1">
    <g
       transform="translate(-0.51112752,0.58911265)"
       id="g4557">
      <g
         id="g844"
         transform="matrix(0.106891,0,0,0.106891,12.279953,262.36634)">
        <path
           sodipodi:nodetypes="cccsssscccsccccc"
           style="fill:#999999;fill-opacity:1;stroke:#1a1a1a;stroke-width:4.67766229;stroke-linecap:round;stroke-linejoin:round;stroke-miterlimit:4;stroke-dasharray:none;stroke-opacity:1"
           d="m -91.976978,287.72828 c -2.878974,-4.46041 -5.246634,-8.15711 -5.261469,-8.2149 m 0,0 c -0.03825,-0.14902 0.965456,-1.53435 2.12077,-2.92711 4.772982,-5.75395 11.218459,-10.26805 17.803735,-12.46887 7.606767,-2.54221 15.586778,-2.42699 24.068309,0.3475 2.22545,0.72799 5.002789,1.87985 7.273999,3.01678 l 2.17397,1.08825 c 0.560898,5.32517 -0.0972,19.30019 -0.0972,19.30019 0,0 -16.432204,-5.42687 -23.522702,-4.3698 -5.189468,0.84663 -9.919117,3.07691 -14.078416,6.63872 -1.62673,1.39305 -4.817498,5.25472 -4.817498,5.25472 l -0.370668,0.44435 c 0,0 -2.413812,-3.64943 -5.292783,-8.10983 m 0,0 h -4.7e-5"
           id="path4152"
           inkscape:connector-curvature="0" />
      </g>
    </g>
  </g>
</svg>
