<?xml version="1.0" encoding="UTF-8" standalone="no"?>
<svg
   xmlns:dc="http://purl.org/dc/elements/1.1/"
   xmlns:cc="http://creativecommons.org/ns#"
   xmlns:rdf="http://www.w3.org/1999/02/22-rdf-syntax-ns#"
   xmlns:svg="http://www.w3.org/2000/svg"
   xmlns="http://www.w3.org/2000/svg"
   xmlns:sodipodi="http://sodipodi.sourceforge.net/DTD/sodipodi-0.dtd"
   xmlns:inkscape="http://www.inkscape.org/namespaces/inkscape"
   width="32"
   height="32"
   viewBox="0 0 8.4666665 8.4666666"
   version="1.1"
   id="svg8"
   inkscape:version="1.0 (4035a4fb49, 2020-05-01)"
   sodipodi:docname="MODELER_insert_mesh.svg">
  <defs
     id="defs2" />
  <sodipodi:namedview
     id="base"
     pagecolor="#ffffff"
     bordercolor="#666666"
     borderopacity="1.0"
     inkscape:pageopacity="0.0"
     inkscape:pageshadow="2"
     inkscape:zoom="1.4142136"
     inkscape:cx="-246.61894"
     inkscape:cy="-67.440024"
     inkscape:document-units="mm"
     inkscape:current-layer="g4557"
     showgrid="false"
     units="px"
     inkscape:window-width="1920"
     inkscape:window-height="1057"
     inkscape:window-x="-8"
     inkscape:window-y="-8"
     inkscape:window-maximized="1"
     inkscape:snap-page="true"
     inkscape:snap-object-midpoints="true"
     inkscape:snap-center="true"
     inkscape:object-paths="true"
     inkscape:snap-intersection-paths="true"
     inkscape:object-nodes="true"
     inkscape:snap-smooth-nodes="true"
     inkscape:snap-midpoints="true"
     inkscape:snap-bbox="true"
     inkscape:snap-global="false"
     fit-margin-top="0"
     fit-margin-left="0"
     fit-margin-right="0"
     fit-margin-bottom="0"
     inkscape:document-rotation="0" />
  <metadata
     id="metadata5">
    <rdf:RDF>
      <cc:Work
         rdf:about="">
        <dc:format>image/svg+xml</dc:format>
        <dc:type
           rdf:resource="http://purl.org/dc/dcmitype/StillImage" />
        <dc:title />
      </cc:Work>
    </rdf:RDF>
  </metadata>
  <g
     inkscape:label="Layer 1"
     inkscape:groupmode="layer"
     id="layer1"
     transform="translate(-0.00937524,-288.55225)">
    <g
       id="g4557"
       transform="translate(-0.51112752,0.58911265)">
      <path
         inkscape:connector-curvature="0"
         id="path4142"
         d="m 4.2995327,293.56228 c 0,-2.26751 0.00179,-2.3985 0.032826,-2.40784 0.4905202,-0.14758 3.949742,-1.1755 3.9860919,-1.18449 l 0.051655,-0.0128 -0.00476,2.3972 -0.00476,2.3972 -1.9976998,0.59557 c -1.0987348,0.32756 -2.0124714,0.59951 -2.0305258,0.60433 -0.031137,0.008 -0.032826,-0.11458 -0.032826,-2.3892 z"
         style="fill:#999999;fill-opacity:1;stroke:none;stroke-width:0.132929;stroke-linecap:round;stroke-linejoin:round;stroke-miterlimit:4;stroke-dasharray:none;stroke-opacity:1" />
      <path
         inkscape:connector-curvature="0"
         id="path4144"
         d="m 2.7489844,290.32084 c -0.806376,-0.38861 -1.4605523,-0.71153 -1.4537251,-0.71759 0.00994,-0.009 3.9405545,-1.18123 3.9818189,-1.18767 0.017022,-0.003 2.9421117,1.40341 2.9424418,1.41441 2.694e-4,0.008 -3.9284171,1.18643 -3.982577,1.19427 -0.012001,0.002 -0.6815825,-0.3148 -1.4879586,-0.70342 z"
         style="fill:#666666;fill-opacity:1;stroke:none;stroke-width:0.132929;stroke-linecap:round;stroke-linejoin:round;stroke-miterlimit:4;stroke-dasharray:none;stroke-opacity:1" />
      <path
         inkscape:connector-curvature="0"
         id="path4146"
         d="m 2.6394721,295.17629 -1.5006195,-0.76327 -0.00476,-2.34779 c -0.00262,-1.29129 1.238e-4,-2.34779 0.00609,-2.34779 0.016873,0 2.9793376,1.42594 2.9952903,1.44174 0.00778,0.008 0.011998,1.08644 0.00938,2.3972 l -0.00476,2.38319 z"
         style="fill:#666666;fill-opacity:1;stroke:none;stroke-width:0.132929;stroke-linecap:round;stroke-linejoin:round;stroke-miterlimit:4;stroke-dasharray:none;stroke-opacity:1" />
      <path
         sodipodi:nodetypes="cccccccccccc"
         inkscape:connector-curvature="0"
         d="m 4.2211462,291.10962 4.2277115,-1.26054 M 1.0588144,289.589 v 4.86914 l 3.159755,1.60578 v -4.95547 z m 0.00257,9e-5 4.2277115,-1.26054 3.1597625,1.52053 v 4.95439 l -4.2300003,1.26092"
         style="fill:none;fill-rule:evenodd;stroke:#1a1a1a;stroke-width:0.5;stroke-linecap:round;stroke-linejoin:round;stroke-miterlimit:4;stroke-dasharray:none;stroke-opacity:1"
         id="path4157" />
      <path
         inkscape:connector-curvature="0"
         id="path4149"
         d="m 7.6600272,292.96422 a 1.1672316,1.2930772 11.000578 0 1 -1.2161895,1.28871 1.1672316,1.2930772 11.000578 0 1 -1.1261842,-1.28871 1.1672316,1.2930772 11.000578 0 1 1.2161895,-1.28871 1.1672316,1.2930772 11.000578 0 1 1.1261842,1.28871 z"
         style="fill:#b2b2b2;fill-opacity:1;stroke:#1a1a1a;stroke-width:0.5;stroke-linecap:round;stroke-linejoin:round;stroke-miterlimit:4;stroke-dasharray:none;stroke-opacity:1" />
      <path
         inkscape:connector-curvature="0"
         id="path4160"
         d="m 5.4355606,293.47291 2.1985735,-0.9858"
         style="fill:none;fill-rule:evenodd;stroke:#1a1a1a;stroke-width:0.5;stroke-linecap:butt;stroke-linejoin:miter;stroke-miterlimit:4;stroke-dasharray:none;stroke-opacity:1" />
    </g>
  </g>
</svg>
